<?xml version="1.0" encoding="UTF-8"?>
<svg xmlns="http://www.w3.org/2000/svg" xmlns:xlink="http://www.w3.org/1999/xlink" width="2605.16pt" height="861.77pt" viewBox="0 0 2605.16 861.77" version="1.1">
<defs>
<clipPath id="clip1">
  <path d="M 0 0 L 2605.160156 0 L 2605.160156 861.769531 L 0 861.769531 Z M 0 0 "/>
</clipPath>
</defs>
<g id="surface1">
<g clip-path="url(#clip1)" clip-rule="nonzero">
<path style=" stroke:none;fill-rule:nonzero;fill:rgb(13.699341%,12.199402%,12.5%);fill-opacity:1;" d="M 2249.371094 727.09375 L 2336.769531 727.09375 L 2266.371094 778.660156 L 2293.378906 861.691406 L 2222.671875 810.363281 L 2152.03125 861.691406 L 2178.96875 778.660156 L 2108.570313 727.175781 L 2195.96875 727.175781 L 2222.910156 644.382813 L 2249.921875 727.175781 Z M 1307.589844 727.09375 L 1394.988281 727.09375 L 1324.589844 778.660156 L 1351.609375 861.691406 L 1280.890625 810.441406 L 1210.261719 861.769531 L 1237.191406 778.660156 L 1166.789063 727.171875 L 1254.199219 727.171875 L 1281.128906 644.378906 L 1308.070313 727.171875 Z M 409.273438 727.09375 L 496.671875 727.09375 L 426.277344 778.660156 L 452.894531 861.609375 L 382.578125 810.441406 L 311.859375 861.769531 L 338.875 778.660156 L 268.480469 727.171875 L 355.878906 727.171875 L 382.894531 644.378906 L 409.828125 727.171875 Z M 2155.449219 521.308594 L 2283.210938 521.308594 L 2283.210938 196.414063 L 2284.640625 196.414063 L 2465.71875 521.308594 L 2605.160156 521.308594 L 2605.160156 0.00390625 L 2477.398438 0.00390625 L 2477.398438 321.238281 L 2475.890625 321.238281 L 2294.808594 0.00390625 L 2155.449219 0.00390625 Z M 1614.359375 521.308594 L 2030.070313 521.308594 L 2030.070313 404.429688 L 1750.148438 404.429688 L 1750.148438 305.191406 L 2005.761719 305.191406 L 2005.761719 200.070313 L 1750.148438 200.070313 L 1750.148438 108.777344 L 2029.75 108.777344 L 2029.75 0.00390625 L 1614.359375 0.00390625 Z M 1525.53125 0.00390625 L 1383.78125 0.00390625 L 1281.609375 385.199219 L 1280.101563 385.199219 L 1178 0.00390625 L 1036.328125 0.00390625 L 1200.640625 521.308594 L 1356.851563 521.308594 Z M 802.492188 144.613281 L 803.925781 144.613281 L 861.609375 327.359375 L 742.980469 327.359375 Z M 539.261719 521.308594 L 678.703125 521.308594 L 711.519531 427.789063 L 893.390625 427.789063 L 925.171875 521.308594 L 1067.078125 521.308594 L 872.175781 0.00390625 L 734.164063 0.00390625 Z M 0 521.308594 L 135.707031 521.308594 L 135.707031 306.777344 L 314.722656 306.777344 L 314.722656 521.308594 L 450.429688 521.308594 L 450.429688 0.00390625 L 314.722656 0.00390625 L 314.722656 189.820313 L 135.710938 189.820313 L 135.710938 0.00390625 L 0 0.00390625 L 0 521.308594 "/>
</g>
</g>
</svg>
